<svg id="Layer_1" data-name="Layer 1" xmlns="http://www.w3.org/2000/svg" xmlns:xlink="http://www.w3.org/1999/xlink" width="100.5" height="100.5" viewBox="0 0 100.5 100.5"><defs><clipPath id="clip-path" transform="translate(0.25 0.25)"><rect width="100" height="100" fill="none"/></clipPath></defs><title>Belgian Woodworker</title><g clip-path="url(#clip-path)"><path d="M29.9133,8.1141,28.375,4.9133A50.2262,50.2262,0,0,0,1.3006,38.9491l3.4567.7908A46.6659,46.6659,0,0,1,29.9133,8.1141Z" transform="translate(0.25 0.25)" fill="#002a8a" stroke="#fff" stroke-miterlimit="10" stroke-width="0.5"/><path d="M3.5178,50.0113a46.9788,46.9788,0,0,1,1.15-10.3494l-3.4306-.7891a50.4515,50.4515,0,0,0,9.598,42.341l2.7491-2.2094A46.535,46.535,0,0,1,3.5178,50.0113Z" transform="translate(0.25 0.25)" fill="#002a8a" stroke="#fff" stroke-miterlimit="10" stroke-width="0.5"/><path d="M50,96.4714A46.3211,46.3211,0,0,1,13.7456,79.0463l-2.7629,2.1989A49.8477,49.8477,0,0,0,50,100Z" transform="translate(0.25 0.25)" fill="#002a8a" stroke="#fff" stroke-miterlimit="10" stroke-width="0.5"/><path d="M89.1618,81.2452l-2.7731-2.1989A46.5513,46.5513,0,0,1,50,96.4714V100A50.1008,50.1008,0,0,0,89.1618,81.2452Z" transform="translate(0.25 0.25)" fill="#002a8a" stroke="#fff" stroke-miterlimit="10" stroke-width="0.5"/><path d="M96.4839,50.0114A46.5328,46.5328,0,0,1,86.4162,79.0045l2.7491,2.2094A50.0762,50.0762,0,0,0,100,50.0114a50.5733,50.5733,0,0,0-1.2367-11.1385l-3.4306.789A46.7652,46.7652,0,0,1,96.4839,50.0114Z" transform="translate(0.25 0.25)" fill="#002a8a" stroke="#fff" stroke-miterlimit="10" stroke-width="0.5"/><path d="M95.3872,39.74l3.4567-.7908A50.2262,50.2262,0,0,0,71.77,4.9133L70.2312,8.1141A46.6753,46.6753,0,0,1,95.3872,39.74Z" transform="translate(0.25 0.25)" fill="#002a8a" stroke="#fff" stroke-miterlimit="10" stroke-width="0.5"/><path d="M50,3.5869a45.7149,45.7149,0,0,1,20.1407,4.65l1.5356-3.2313a49.4435,49.4435,0,0,0-43.3526-.0018l1.5356,3.2313A45.7079,45.7079,0,0,1,50,3.5869Z" transform="translate(0.25 0.25)" fill="#002a8a" stroke="#fff" stroke-miterlimit="10" stroke-width="0.5"/><path d="M12,28.8463,30.7415,39.6587,12,50.4711Z" transform="translate(0.25 0.25)" fill="#dad3ff" stroke="#fff" stroke-miterlimit="10" stroke-width="0.5"/><path d="M30.7433,61.2166l-.0847-21.56L12.009,50.424Z" transform="translate(0.25 0.25)" fill="#5d4799" stroke="#fff" stroke-miterlimit="10" stroke-width="0.5"/><path d="M30.7435,61.2166l18.637-10.7584v-.0739L30.6588,39.6566Z" transform="translate(0.25 0.25)" fill="#5d4799" stroke="#fff" stroke-miterlimit="10" stroke-width="0.5"/><path d="M30.6588,39.6566,49.3805,50.3843V28.85Z" transform="translate(0.25 0.25)" fill="#5d4799" stroke="#fff" stroke-miterlimit="10" stroke-width="0.5"/><path d="M49.38,28.85v-.0162L30.6514,18.0211l-.0775.045.0847,21.5906Z" transform="translate(0.25 0.25)" fill="#301d78" stroke="#fff" stroke-miterlimit="10" stroke-width="0.5"/><path d="M50.5628,74.1984,69.2845,84.9262V63.3914Z" transform="translate(0.25 0.25)" fill="#466e12" stroke="#fff" stroke-miterlimit="10" stroke-width="0.5"/><path d="M50.4781,52.6077l-18.65,10.7674v.09L50.5628,74.1983Z" transform="translate(0.25 0.25)" fill="#466e12" stroke="#fff" stroke-miterlimit="10" stroke-width="0.5"/><path d="M50.5629,74.1983l-18.65,10.7674,18.65-10.7674L31.8286,63.4651V85" transform="translate(0.25 0.25)" fill="#466e12"/><path d="M50.5629,74.1983l-18.65,10.7674Zm0,0L31.8286,63.4651V85" transform="translate(0.25 0.25)" fill="none" stroke="#fff" stroke-miterlimit="10" stroke-width="0.5"/><path d="M69.2846,63.3915v-.0162L50.5557,52.5629l-.0775.045.0847,21.5906Z" transform="translate(0.25 0.25)" fill="#1a4400" stroke="#fff" stroke-miterlimit="10" stroke-width="0.5"/><path d="M70.2159,61.1955l.0847-21.56L88.95,50.4029Z" transform="translate(0.25 0.25)" fill="#ffb853" stroke="#fff" stroke-miterlimit="10" stroke-width="0.5"/><path d="M88.9592,28.8252,70.2176,39.6376,88.9592,50.45Z" transform="translate(0.25 0.25)" fill="#ffb853" stroke="#fff" stroke-miterlimit="10" stroke-width="0.5"/><path d="M70.3,39.6356,51.5787,50.3633V28.8286Z" transform="translate(0.25 0.25)" fill="#ffb853" stroke="#fff" stroke-miterlimit="10" stroke-width="0.5"/><path d="M51.5787,28.8286v-.0162L70.3076,18l.0775.0451L70.3,39.6357Z" transform="translate(0.25 0.25)" fill="#580000" stroke="#fff" stroke-miterlimit="10" stroke-width="0.5"/><path d="M70.2157,61.1955,51.5787,50.4372v-.0739L70.3,39.6356Z" transform="translate(0.25 0.25)" fill="#580000" stroke="#fff" stroke-miterlimit="10" stroke-width="0.5"/></g></svg>