<?xml version="1.0" encoding="utf-8"?>
<!-- Generator: Adobe Illustrator 23.0.3, SVG Export Plug-In . SVG Version: 6.00 Build 0)  -->
<svg version="1.1" id="Layer_1" xmlns="http://www.w3.org/2000/svg" xmlns:xlink="http://www.w3.org/1999/xlink" x="0px" y="0px"
	 width="100px" height="100px" viewBox="0 0 100 100" enable-background="new 0 0 100 100" xml:space="preserve">
<g>
	<defs>
		<rect id="SVGID_1_" y="0" width="100" height="100"/>
	</defs>
	<clipPath id="SVGID_2_">
		<use xlink:href="#SVGID_1_"  overflow="visible"/>
	</clipPath>
	<g clip-path="url(#SVGID_2_)">
		<path fill="#D5F9FB" stroke="#FFFFFF" stroke-width="0.5" stroke-miterlimit="10" d="M29.9133,8.1142L28.375,4.9133
			C14.8477,11.4552,4.7089,23.919,1.3006,38.9491l3.4567,0.7908C7.9217,25.7755,17.3434,14.1942,29.9133,8.1142z"/>
		<path fill="#002A8A" stroke="#FFFFFF" stroke-width="0.5" stroke-miterlimit="10" d="M3.5178,50.0113
			c0-3.558,0.3986-7.021,1.1495-10.3494l-3.4306-0.7891C0.4288,42.4541,0,46.1825,0,50.0113
			c0,11.8021,4.0552,22.6465,10.8347,31.2025l2.7491-2.2094C7.2848,71.0527,3.5178,60.9759,3.5178,50.0113z"/>
		<path fill="#002A8A" stroke="#FFFFFF" stroke-width="0.5" stroke-miterlimit="10" d="M50,96.4713
			c-14.6749,0-27.7563-6.8055-36.2544-17.4252l-2.7629,2.1989C20.1281,92.675,34.2057,99.9999,50,99.9999V96.4713z"/>
		<path fill="#002A8A" stroke="#FFFFFF" stroke-width="0.5" stroke-miterlimit="10" d="M89.1618,81.245l-2.7731-2.1989
			C77.8609,89.6658,64.731,96.4713,50,96.4713v3.5286C65.8528,99.9999,79.9826,92.675,89.1618,81.245z"/>
		<path fill="#002A8A" stroke="#FFFFFF" stroke-width="0.5" stroke-miterlimit="10" d="M96.4839,50.0113
			c0,10.9646-3.7687,21.0432-10.0677,28.9931l2.7491,2.2094C95.9448,72.6578,100,61.8116,100,50.0113
			c0-3.8288-0.4288-7.5572-1.2367-11.1385l-3.4306,0.7891C96.0872,42.9903,96.4839,46.4533,96.4839,50.0113z"/>
		<path fill="#002A8A" stroke="#FFFFFF" stroke-width="0.5" stroke-miterlimit="10" d="M95.3872,39.7399l3.4567-0.7908
			C95.4356,23.919,85.2968,11.4552,71.7695,4.9133l-1.5383,3.2009C82.7994,14.1942,92.221,25.7755,95.3872,39.7399z"/>
		<path fill="#002A8A" stroke="#FFFFFF" stroke-width="0.5" stroke-miterlimit="10" d="M50,3.5869
			c7.2165,0,14.0482,1.671,20.1407,4.6501l1.5356-3.2313C65.1203,1.798,57.7677,0,50,0S34.8797,1.798,28.3237,5.0039l1.5356,3.2313
			C35.95,5.2561,42.7835,3.5869,50,3.5869z"/>
		<path fill="#301D78" stroke="#FFFFFF" stroke-width="0.5" stroke-miterlimit="10" d="M12,28.8462l18.7415,10.8124L12,50.471
			V28.8462z"/>
		<path fill="#301D78" stroke="#FFFFFF" stroke-width="0.5" stroke-miterlimit="10" d="M30.7433,61.2165l-0.0847-21.56
			L12.009,50.4239L30.7433,61.2165z"/>
		<path fill="#DAD3FF" stroke="#FFFFFF" stroke-width="0.5" stroke-miterlimit="10" d="M30.7435,61.2165l18.637-10.7584v-0.0739
			L30.6588,39.6565L30.7435,61.2165z"/>
		<path fill="#301D78" stroke="#FFFFFF" stroke-width="0.5" stroke-miterlimit="10" d="M30.6588,39.6566l18.7217,10.7277V28.8496
			L30.6588,39.6566z"/>
		<path fill="#301D78" stroke="#FFFFFF" stroke-width="0.5" stroke-miterlimit="10" d="M49.3803,28.8496v-0.0162L30.6514,18.021
			l-0.0775,0.045l0.0847,21.5907L49.3803,28.8496z"/>
		<path fill="#466E12" stroke="#FFFFFF" stroke-width="0.5" stroke-miterlimit="10" d="M50.5628,74.1984l18.7217,10.7277V63.3914
			L50.5628,74.1984z"/>
		<path fill="#1A4400" stroke="#FFFFFF" stroke-width="0.5" stroke-miterlimit="10" d="M50.4781,52.6077L31.8285,63.375v0.0901
			l18.7343,10.7332L50.4781,52.6077z"/>
		<path fill="#466E12" d="M50.5629,74.1982L31.9133,84.9656L50.5629,74.1982L31.8286,63.4651v21.5347"/>
		<path fill="none" stroke="#FFFFFF" stroke-width="0.5" stroke-miterlimit="10" d="M50.5629,74.1982L31.9133,84.9656
			L50.5629,74.1982z M50.5629,74.1982L31.8286,63.4651v21.5347"/>
		<path fill="#1A4400" stroke="#FFFFFF" stroke-width="0.5" stroke-miterlimit="10" d="M69.2846,63.3914v-0.0162L50.5557,52.5627
			l-0.0775,0.0451l0.0847,21.5906L69.2846,63.3914z"/>
		<path fill="#FFB853" stroke="#FFFFFF" stroke-width="0.5" stroke-miterlimit="10" d="M70.2159,61.1955l0.0847-21.56
			l18.6496,10.7674L70.2159,61.1955z"/>
		<path fill="#FFB853" stroke="#FFFFFF" stroke-width="0.5" stroke-miterlimit="10" d="M88.9592,28.8252L70.2176,39.6376
			L88.9592,50.45V28.8252z"/>
		<path fill="#FFB853" stroke="#FFFFFF" stroke-width="0.5" stroke-miterlimit="10" d="M70.3004,39.6356L51.5787,50.3634V28.8286
			L70.3004,39.6356z"/>
		<path fill="#FFB853" stroke="#FFFFFF" stroke-width="0.5" stroke-miterlimit="10" d="M51.5787,28.8286v-0.0162L70.3076,18
			l0.0775,0.0451l-0.0847,21.5906L51.5787,28.8286z"/>
		<path fill="#FFB853" stroke="#FFFFFF" stroke-width="0.5" stroke-miterlimit="10" d="M70.2157,61.1955l-18.637-10.7584v-0.0739
			l18.7217-10.7277L70.2157,61.1955z"/>
	</g>
</g>
</svg>
